<svg id="Layer_1" data-name="Layer 1" xmlns="http://www.w3.org/2000/svg" viewBox="0 0 144 144"><rect x="17.28" y="31.82" width="109.45" height="80.36" transform="translate(144 0) rotate(90)" fill="#fff"/><path d="M113.68,128.22H30.32V15.78h83.36Zm-80.36-3h77.36V18.78H33.32Z" fill="#0d202e"/><rect x="48.89" y="63.18" width="47" height="3" fill="#0d202e"/><rect x="48.89" y="75.18" width="47" height="3" fill="#0d202e"/><rect x="48.89" y="87.18" width="47" height="3" fill="#0d202e"/><rect x="48.89" y="99.18" width="47" height="3" fill="#0d202e"/><rect x="48.89" y="111.18" width="47" height="3" fill="#0d202e"/><path d="M83.91,42.67a4.93,4.93,0,0,0-.94,3A4.09,4.09,0,0,0,85.7,44.5a4.86,4.86,0,0,0,1-3A4.09,4.09,0,0,0,83.91,42.67Z" fill="#0d202e"/><path d="M81.7,42.91A4.53,4.53,0,0,0,83,45.71a4.81,4.81,0,0,0,1.21-2.9A4.57,4.57,0,0,0,82.91,40,4.81,4.81,0,0,0,81.7,42.91Z" fill="#0d202e"/><path d="M80.8,48a5.08,5.08,0,0,0-2.43,2.36,4.24,4.24,0,0,0,3.16.41A5.09,5.09,0,0,0,84,48.41,4.21,4.21,0,0,0,80.8,48Z" fill="#0d202e"/><path d="M78.61,47a5.19,5.19,0,0,0-.23,3.42A4.91,4.91,0,0,0,81,48.29a5.22,5.22,0,0,0,.23-3.43A5,5,0,0,0,78.61,47Z" fill="#0d202e"/><path d="M76,51.56a4.88,4.88,0,0,0-3.28,1.2A4.75,4.75,0,0,0,75.6,54.7a4.84,4.84,0,0,0,3.28-1.19A4.76,4.76,0,0,0,76,51.56Z" fill="#0d202e"/><path d="M74.32,49.48a5.65,5.65,0,0,0-1.6,3.32A4.7,4.7,0,0,0,76.08,52a5.69,5.69,0,0,0,1.6-3.33A4.68,4.68,0,0,0,74.32,49.48Z" fill="#0d202e"/><path d="M84.19,36.84a4.62,4.62,0,0,0,.45,3A4.39,4.39,0,0,0,86.5,37.5a4.61,4.61,0,0,0-.44-3A4.44,4.44,0,0,0,84.19,36.84Z" fill="#0d202e"/><path d="M82.39,38.13a4,4,0,0,0,2.29,1.73,4.71,4.71,0,0,0-.18-3,3.89,3.89,0,0,0-2.28-1.73A4.68,4.68,0,0,0,82.39,38.13Z" fill="#0d202e"/><path d="M82.75,32.44a3.28,3.28,0,0,0,1.67,1.66,3.85,3.85,0,0,0,.15-2.48A3.28,3.28,0,0,0,82.9,30,3.84,3.84,0,0,0,82.75,32.44Z" fill="#0d202e"/><path d="M82.21,34.19a3.09,3.09,0,0,0,2.29-.12A3.4,3.4,0,0,0,83,32.24a3.09,3.09,0,0,0-2.29.12A3.37,3.37,0,0,0,82.21,34.19Z" fill="#0d202e"/><path d="M79.22,29.25a3.35,3.35,0,0,0,2.08,1.14A3.9,3.9,0,0,0,80.73,28a3.35,3.35,0,0,0-2.08-1.14A3.9,3.9,0,0,0,79.22,29.25Z" fill="#0d202e"/><path d="M79.2,31.09a3.07,3.07,0,0,0,2.16-.75,3.44,3.44,0,0,0-2-1.35,3,3,0,0,0-2.16.75A3.49,3.49,0,0,0,79.2,31.09Z" fill="#0d202e"/><path d="M76.15,27.88a2.2,2.2,0,0,0,1.67,0,2.62,2.62,0,0,0-1.1-1.39,2.23,2.23,0,0,0-1.68,0A2.67,2.67,0,0,0,76.15,27.88Z" fill="#0d202e"/><path d="M60.09,43.13a4.9,4.9,0,0,1,.94,3A4.05,4.05,0,0,1,58.3,45a4.87,4.87,0,0,1-.95-3A4.09,4.09,0,0,1,60.09,43.13Z" fill="#0d202e"/><path d="M62.3,43.36A4.57,4.57,0,0,1,61,46.17a4.81,4.81,0,0,1-1.21-2.91,4.53,4.53,0,0,1,1.29-2.8A4.81,4.81,0,0,1,62.3,43.36Z" fill="#0d202e"/><path d="M63.2,48.11a5.08,5.08,0,0,1,2.43,2.36,4.24,4.24,0,0,1-3.16.41,5.09,5.09,0,0,1-2.42-2.36A4.21,4.21,0,0,1,63.2,48.11Z" fill="#0d202e"/><path d="M65.39,47.09a5.27,5.27,0,0,1,.23,3.42A4.91,4.91,0,0,1,63,48.4,5.23,5.23,0,0,1,62.77,45,4.92,4.92,0,0,1,65.39,47.09Z" fill="#0d202e"/><path d="M68,51.68a4.87,4.87,0,0,1,3.28,1.19,4.8,4.8,0,0,1-2.87,2,4.88,4.88,0,0,1-3.28-1.2A4.72,4.72,0,0,1,68,51.68Z" fill="#0d202e"/><path d="M69.68,49.59a5.65,5.65,0,0,1,1.6,3.32,4.7,4.7,0,0,1-3.36-.85,5.67,5.67,0,0,1-1.6-3.33A4.73,4.73,0,0,1,69.68,49.59Z" fill="#0d202e"/><path d="M59.81,37.29a4.62,4.62,0,0,1-.45,3A4.39,4.39,0,0,1,57.5,38a4.58,4.58,0,0,1,.44-3A4.44,4.44,0,0,1,59.81,37.29Z" fill="#0d202e"/><path d="M61.61,38.58a3.94,3.94,0,0,1-2.29,1.74,4.71,4.71,0,0,1,.18-3,3.89,3.89,0,0,1,2.28-1.73A4.65,4.65,0,0,1,61.61,38.58Z" fill="#0d202e"/><path d="M61.25,32.89a3.24,3.24,0,0,1-1.67,1.66,3.82,3.82,0,0,1-.15-2.47,3.28,3.28,0,0,1,1.67-1.67A3.85,3.85,0,0,1,61.25,32.89Z" fill="#0d202e"/><path d="M61.79,34.65a3.07,3.07,0,0,1-2.29-.13A3.4,3.4,0,0,1,61,32.69a3.07,3.07,0,0,1,2.29.13A3.4,3.4,0,0,1,61.79,34.65Z" fill="#0d202e"/><path d="M64.78,29.7a3.3,3.3,0,0,1-2.08,1.14,3.87,3.87,0,0,1,.57-2.42,3.3,3.3,0,0,1,2.08-1.14A3.87,3.87,0,0,1,64.78,29.7Z" fill="#0d202e"/><path d="M64.8,31.54a3,3,0,0,1-2.16-.75,3.49,3.49,0,0,1,2-1.35,3.07,3.07,0,0,1,2.16.75A3.44,3.44,0,0,1,64.8,31.54Z" fill="#0d202e"/><path d="M67.85,28.33a2.2,2.2,0,0,1-1.67,0,2.62,2.62,0,0,1,1.1-1.39,2.28,2.28,0,0,1,1.68,0A2.63,2.63,0,0,1,67.85,28.33Z" fill="#0d202e"/><path d="M67.34,32.78h4.9a12.09,12.09,0,0,1,3.3.3,3.13,3.13,0,0,1,2,4.16A3.1,3.1,0,0,1,75,38.93,4,4,0,0,1,77.52,40a2.84,2.84,0,0,1,.69,1.9A3.38,3.38,0,0,1,76.12,45a8.48,8.48,0,0,1-3.43.46H67.34Zm3,2.36v2.64h2.38c.72,0,1.89-.05,1.89-1.36S73.57,35.14,73,35.14Zm0,4.94v3.07h2.2c1.06,0,2.44-.06,2.44-1.51s-1.25-1.54-1.9-1.56Z" fill="#0d202e"/></svg>