<svg id="Layer_1" data-name="Layer 1" xmlns="http://www.w3.org/2000/svg" viewBox="0 0 144 144"><rect x="111.8" y="78.4" width="12.99" height="12.29" fill="none" stroke="#0d202e" stroke-miterlimit="10" stroke-width="3"/><path d="M130.45,67.48v34.2H85.82V67.9" fill="#fff" stroke="#0d202e" stroke-miterlimit="10" stroke-width="3"/><polygon points="79.1 70.64 107.93 50.78 135.5 70.64 79.1 70.64" fill="#fff" stroke="#0d202e" stroke-miterlimit="10" stroke-width="3"/><rect x="92.38" y="78.36" width="12.99" height="22.71" fill="none" stroke="#0d202e" stroke-miterlimit="10" stroke-width="3"/><rect x="41.2" y="78.4" width="12.99" height="12.29" fill="none" stroke="#0d202e" stroke-miterlimit="10" stroke-width="3"/><path d="M59.85,67.48v34.2H15.23V67.9" fill="#fff" stroke="#0d202e" stroke-miterlimit="10" stroke-width="3"/><polygon points="8.5 70.64 37.33 50.78 64.9 70.64 8.5 70.64" fill="#fff" stroke="#0d202e" stroke-miterlimit="10" stroke-width="3"/><rect x="21.79" y="78.36" width="12.99" height="22.71" fill="none" stroke="#0d202e" stroke-miterlimit="10" stroke-width="3"/><path d="M84.41,69.72H75.5l-3,9.83-4.38-9.83H60.86L68,85.79l-1.39,17.67H78.68l-1.8-17.41ZM68.73,101.48l1.26-16L63.9,71.7h2.9l6,13.46L77,71.7h4.36l-6.47,14,1.64,15.76Z" fill="#0f1f2d"/><polygon points="74.85 85.72 76.49 101.48 68.73 101.48 69.99 85.45 63.9 71.7 66.8 71.7 72.79 85.16 76.96 71.7 81.32 71.7 74.85 85.72" fill="#fff"/><path d="M66.7,73.23a10,10,0,0,0,9.87.16,5.33,5.33,0,0,0,8.7-2.7,5,5,0,0,0,.11-.56A9.06,9.06,0,0,0,88.23,52.3h-.07a4.26,4.26,0,0,0,.25-.71A4.52,4.52,0,0,0,82,46.43a10.56,10.56,0,0,0-18.76-.34,4.59,4.59,0,0,0-4.82,6.75,8.22,8.22,0,0,0-.65,14.75,5.19,5.19,0,0,0-.63,1.51,5.28,5.28,0,0,0,9.57,4.13Z" fill="#fff" stroke="#111f2d" stroke-linecap="round" stroke-miterlimit="10" stroke-width="3"/></svg>